<svg xmlns="http://www.w3.org/2000/svg" width="225" height="264" fill="none"><mask id="a" width="113" height="215" x="56" y="22" maskUnits="userSpaceOnUse" style="mask-type:luminance"><path fill="#fff" fill-rule="evenodd" d="M90.76 25.587c1.156-2.43 3.98-3.5 6.37-2.264 16.053 8.3 71.598 41.615 71.598 105.26 0 63.546-55.656 98.24-71.892 107.009-2.42 1.307-5.327.218-6.479-2.28L56.93 160.815c-1.992-4.32.835-9.494 5.277-11.197 7.447-2.856 16.646-8.85 16.646-21.035 0-12.12-9.102-18.115-16.528-20.989-4.47-1.73-7.293-6.978-5.232-11.307l33.667-70.7z" clip-rule="evenodd"/></mask><g mask="url(#a)"><g filter="url(#b)"><path fill="#222" fill-opacity=".2" fill-rule="evenodd" d="M61.876 119.255s35.95 60.916 40.943 80.888c4.993 19.972 92.87 22.968 92.87 22.968l-88.876 27.961-76.893-22.968L1.96 118.257l59.917.998z" clip-rule="evenodd"/></g><g filter="url(#c)"><path fill="#222" fill-opacity=".2" fill-rule="evenodd" d="M53.887 132.248s35.95-60.915 40.943-80.887c4.993-19.972 92.871-22.968 92.871-22.968L98.825.432 21.932 23.4-6.03 133.247l59.916-.999z" clip-rule="evenodd"/></g><g filter="url(#d)"><circle cx="55.885" cy="130.251" r="25.964" fill="#222" fill-opacity=".2"/></g></g><g filter="url(#e)" opacity=".8"><circle cx="62.605" cy="128.13" r="20.938" fill="#000" fill-opacity=".01" transform="rotate(-60 62.605 128.13)"/></g><rect width="3.068" height="23.656" x="54.359" y="104.558" fill="url(#f)" rx="1.534"/><path fill="url(#g)" fill-rule="evenodd" d="M56.284 105.998a1.534 1.534 0 1 1 3.056.266l-1.784 20.51a1.534 1.534 0 0 1-3.056-.266l1.784-20.51z" clip-rule="evenodd"/><path fill="url(#h)" fill-rule="evenodd" d="M58.21 106.074a1.534 1.534 0 1 1 3.022.53l-3.555 20.274a1.534 1.534 0 1 1-3.022-.529l3.554-20.275z" clip-rule="evenodd"/><path fill="url(#i)" fill-rule="evenodd" d="M60.11 106.362a1.535 1.535 0 0 1 2.965.79l-5.296 19.885a1.534 1.534 0 1 1-2.965-.79l5.297-19.885z" clip-rule="evenodd"/><path fill="url(#j)" fill-rule="evenodd" d="M61.98 106.816a1.534 1.534 0 1 1 2.887 1.044l-7 19.343a1.534 1.534 0 1 1-2.887-1.044l7-19.343z" clip-rule="evenodd"/><path fill="url(#k)" fill-rule="evenodd" d="M63.801 107.432a1.535 1.535 0 0 1 2.786 1.292l-8.647 18.653a1.535 1.535 0 1 1-2.786-1.291l8.647-18.654z" clip-rule="evenodd"/><path fill="url(#l)" fill-rule="evenodd" d="M65.564 108.205a1.535 1.535 0 1 1 2.664 1.529l-10.23 17.823a1.536 1.536 0 1 1-2.664-1.529l10.23-17.823z" clip-rule="evenodd"/><path fill="url(#m)" fill-rule="evenodd" d="M67.252 109.13a1.537 1.537 0 0 1 2.522 1.756l-11.733 16.855a1.537 1.537 0 0 1-2.523-1.756l11.734-16.855z" clip-rule="evenodd"/><path fill="url(#n)" fill-rule="evenodd" d="M68.853 110.198a1.538 1.538 0 0 1 2.361 1.97l-13.147 15.761a1.538 1.538 0 0 1-2.361-1.97l13.147-15.761z" clip-rule="evenodd"/><path fill="url(#o)" fill-rule="evenodd" d="M70.355 111.403a1.538 1.538 0 1 1 2.182 2.169l-14.46 14.546a1.538 1.538 0 1 1-2.182-2.169l14.46-14.546z" clip-rule="evenodd"/><path fill="url(#p)" fill-rule="evenodd" d="M71.749 112.735a1.54 1.54 0 0 1 1.985 2.353l-15.664 13.22a1.539 1.539 0 1 1-1.985-2.352l15.664-13.221z" clip-rule="evenodd"/><path fill="url(#q)" fill-rule="evenodd" d="M73.021 114.184a1.539 1.539 0 1 1 1.773 2.517l-16.747 11.796a1.54 1.54 0 0 1-1.773-2.518l16.747-11.795z" clip-rule="evenodd"/><path fill="url(#r)" fill-rule="evenodd" d="M74.163 115.738a1.54 1.54 0 1 1 1.547 2.664l-17.703 10.281a1.54 1.54 0 1 1-1.547-2.664l17.703-10.281z" clip-rule="evenodd"/><path fill="url(#s)" fill-rule="evenodd" d="M75.167 117.386a1.542 1.542 0 0 1 1.309 2.791l-18.525 8.688a1.54 1.54 0 1 1-1.309-2.79l18.525-8.689z" clip-rule="evenodd"/><path fill="url(#t)" fill-rule="evenodd" d="M76.024 119.116a1.542 1.542 0 1 1 1.06 2.895l-19.204 7.031a1.541 1.541 0 1 1-1.06-2.895l19.204-7.031z" clip-rule="evenodd"/><path fill="url(#u)" fill-rule="evenodd" d="M76.728 120.914a1.542 1.542 0 0 1 .803 2.978l-19.74 5.32a1.542 1.542 0 0 1-.803-2.978l19.74-5.32z" clip-rule="evenodd"/><path fill="url(#v)" fill-rule="evenodd" d="M77.274 122.767a1.543 1.543 0 0 1 .539 3.038l-20.124 3.569a1.544 1.544 0 0 1-.539-3.038l20.124-3.569z" clip-rule="evenodd"/><path fill="url(#w)" fill-rule="evenodd" d="M77.659 124.661a1.543 1.543 0 0 1 .27 3.074l-20.355 1.791a1.542 1.542 0 1 1-.27-3.073l20.355-1.792z" clip-rule="evenodd"/><path fill="url(#x)" fill-rule="evenodd" d="M77.877 126.582a1.542 1.542 0 1 1 0 3.085H57.444a1.543 1.543 0 0 1 0-3.085h20.433z" clip-rule="evenodd"/><path fill="url(#y)" fill-rule="evenodd" d="M77.929 128.514a1.544 1.544 0 0 1-.27 3.074l-20.356-1.792a1.542 1.542 0 1 1 .27-3.073l20.356 1.791z" clip-rule="evenodd"/><path fill="url(#z)" fill-rule="evenodd" d="M77.813 130.444a1.542 1.542 0 1 1-.539 3.038l-20.123-3.569a1.542 1.542 0 1 1 .539-3.038l20.123 3.569z" clip-rule="evenodd"/><path fill="url(#A)" fill-rule="evenodd" d="M77.531 132.357a1.542 1.542 0 1 1-.803 2.978l-19.738-5.32a1.542 1.542 0 1 1 .803-2.978l19.738 5.32z" clip-rule="evenodd"/><path fill="url(#B)" fill-rule="evenodd" d="M77.084 134.238a1.541 1.541 0 1 1-1.06 2.895l-19.205-7.031a1.541 1.541 0 1 1 1.06-2.895l19.205 7.031z" clip-rule="evenodd"/><path fill="url(#C)" fill-rule="evenodd" d="M76.476 136.072a1.542 1.542 0 0 1-1.309 2.791l-18.525-8.689a1.54 1.54 0 1 1 1.309-2.79l18.525 8.688z" clip-rule="evenodd"/><path fill="url(#D)" fill-rule="evenodd" d="M75.71 137.847a1.54 1.54 0 0 1-1.547 2.664L56.46 130.23a1.54 1.54 0 0 1 1.547-2.664l17.703 10.281z" clip-rule="evenodd"/><path fill="url(#E)" fill-rule="evenodd" d="M74.795 139.547a1.54 1.54 0 1 1-1.773 2.518L56.273 130.27a1.54 1.54 0 0 1 1.773-2.518l16.748 11.795z" clip-rule="evenodd"/><path fill="url(#F)" fill-rule="evenodd" d="M73.734 141.162a1.54 1.54 0 0 1-1.985 2.352l-15.664-13.221a1.539 1.539 0 1 1 1.985-2.352l15.664 13.221z" clip-rule="evenodd"/><path fill="url(#G)" fill-rule="evenodd" d="M72.538 142.676a1.538 1.538 0 1 1-2.182 2.17L55.895 130.3a1.538 1.538 0 1 1 2.182-2.169l14.46 14.545z" clip-rule="evenodd"/><path fill="url(#H)" fill-rule="evenodd" d="M71.214 144.081a1.538 1.538 0 0 1-2.361 1.969l-13.148-15.76a1.538 1.538 0 0 1 2.361-1.97l13.148 15.761z" clip-rule="evenodd"/><path fill="url(#I)" fill-rule="evenodd" d="M69.774 145.363a1.538 1.538 0 0 1-2.523 1.756l-11.733-16.855a1.537 1.537 0 1 1 2.523-1.756l11.733 16.855z" clip-rule="evenodd"/><path fill="url(#J)" fill-rule="evenodd" d="M68.229 146.514a1.536 1.536 0 1 1-2.664 1.53l-10.23-17.823a1.537 1.537 0 0 1 2.664-1.529l10.23 17.822z" clip-rule="evenodd"/><path fill="url(#K)" fill-rule="evenodd" d="M66.588 147.525a1.534 1.534 0 1 1-2.786 1.292l-8.648-18.654a1.536 1.536 0 1 1 2.786-1.291l8.648 18.653z" clip-rule="evenodd"/><path fill="url(#L)" fill-rule="evenodd" d="M64.866 148.388a1.535 1.535 0 0 1-2.887 1.045L54.98 130.09a1.535 1.535 0 0 1 2.887-1.045l6.999 19.343z" clip-rule="evenodd"/><path fill="url(#M)" fill-rule="evenodd" d="M63.076 149.097a1.535 1.535 0 0 1-2.965.79l-5.298-19.885a1.535 1.535 0 0 1 2.965-.79l5.298 19.885z" clip-rule="evenodd"/><path fill="url(#N)" fill-rule="evenodd" d="M61.231 149.645a1.534 1.534 0 1 1-3.022.53L54.655 129.9a1.534 1.534 0 0 1 3.022-.529l3.554 20.274z" clip-rule="evenodd"/><path fill="url(#O)" fill-rule="evenodd" d="M59.346 150.03a1.534 1.534 0 0 1-3.056.266l-1.784-20.51a1.533 1.533 0 1 1 3.056-.266l1.784 20.51z" clip-rule="evenodd"/><rect width="3.068" height="23.656" x="57.435" y="151.781" fill="url(#P)" rx="1.534" transform="rotate(180 57.435 151.781)"/><path fill="url(#Q)" fill-rule="evenodd" d="M55.513 150.296a1.535 1.535 0 0 1-3.056-.266l1.784-20.51a1.534 1.534 0 1 1 3.056.266l-1.784 20.51z" clip-rule="evenodd"/><path fill="url(#R)" fill-rule="evenodd" d="M53.593 150.175a1.534 1.534 0 1 1-3.022-.53l3.555-20.274a1.534 1.534 0 1 1 3.022.529l-3.555 20.275z" clip-rule="evenodd"/><path fill="url(#S)" fill-rule="evenodd" d="M51.692 149.887a1.535 1.535 0 0 1-2.965-.79l5.297-19.885a1.534 1.534 0 0 1 2.965.79l-5.297 19.885z" clip-rule="evenodd"/><path fill="url(#T)" fill-rule="evenodd" d="M49.823 149.433a1.534 1.534 0 1 1-2.886-1.044l6.999-19.343a1.534 1.534 0 1 1 2.887 1.044l-7 19.343z" clip-rule="evenodd"/><path fill="url(#U)" fill-rule="evenodd" d="M48 148.817a1.536 1.536 0 0 1-2.786-1.292l8.648-18.653a1.536 1.536 0 1 1 2.786 1.291L48 148.817z" clip-rule="evenodd"/><path fill="url(#V)" fill-rule="evenodd" d="M46.24 148.044a1.536 1.536 0 1 1-2.664-1.529l10.229-17.823a1.536 1.536 0 1 1 2.664 1.529l-10.23 17.823z" clip-rule="evenodd"/><path fill="url(#W)" fill-rule="evenodd" d="M44.55 147.119a1.537 1.537 0 0 1-2.523-1.756l11.735-16.855a1.537 1.537 0 0 1 2.523 1.756L44.55 147.119z" clip-rule="evenodd"/><path fill="url(#X)" fill-rule="evenodd" d="M42.95 146.05a1.536 1.536 0 1 1-2.361-1.969l13.147-15.761a1.538 1.538 0 0 1 2.361 1.97L42.95 146.05z" clip-rule="evenodd"/><path fill="url(#Y)" fill-rule="evenodd" d="M41.446 144.846a1.54 1.54 0 0 1-2.182-2.17l14.462-14.545a1.538 1.538 0 1 1 2.182 2.169l-14.462 14.546z" clip-rule="evenodd"/><path fill="url(#Z)" fill-rule="evenodd" d="M40.054 143.514a1.539 1.539 0 1 1-1.985-2.352l15.664-13.221a1.539 1.539 0 1 1 1.985 2.352l-15.664 13.221z" clip-rule="evenodd"/><path fill="url(#aa)" fill-rule="evenodd" d="M38.782 142.065a1.54 1.54 0 0 1-1.773-2.518l16.747-11.795a1.54 1.54 0 0 1 1.773 2.518l-16.747 11.795z" clip-rule="evenodd"/><path fill="url(#ab)" fill-rule="evenodd" d="M37.64 140.511a1.54 1.54 0 0 1-1.547-2.664l17.703-10.281a1.54 1.54 0 1 1 1.547 2.664L37.64 140.511z" clip-rule="evenodd"/><path fill="url(#ac)" fill-rule="evenodd" d="M36.636 138.863a1.542 1.542 0 0 1-1.309-2.791l18.525-8.688a1.54 1.54 0 1 1 1.309 2.79l-18.525 8.689z" clip-rule="evenodd"/><path fill="url(#ad)" fill-rule="evenodd" d="M35.778 137.133a1.542 1.542 0 0 1-1.06-2.896l19.205-7.03a1.541 1.541 0 1 1 1.06 2.895l-19.205 7.031z" clip-rule="evenodd"/><path fill="url(#ae)" fill-rule="evenodd" d="M35.075 135.335a1.542 1.542 0 1 1-.803-2.978l19.739-5.32a1.542 1.542 0 0 1 .803 2.978l-19.74 5.32z" clip-rule="evenodd"/><path fill="url(#af)" fill-rule="evenodd" d="M34.528 133.482a1.543 1.543 0 0 1-.539-3.038l20.124-3.569a1.543 1.543 0 0 1 .539 3.038l-20.124 3.569z" clip-rule="evenodd"/><path fill="url(#ag)" fill-rule="evenodd" d="M34.145 131.588a1.543 1.543 0 0 1-.27-3.074l20.355-1.791a1.542 1.542 0 1 1 .27 3.073l-20.355 1.792z" clip-rule="evenodd"/><path fill="url(#ah)" fill-rule="evenodd" d="M33.926 129.667a1.542 1.542 0 1 1 0-3.085h20.433a1.542 1.542 0 1 1 0 3.085H33.926z" clip-rule="evenodd"/><path fill="url(#ai)" fill-rule="evenodd" d="M33.874 127.735a1.543 1.543 0 0 1 .27-3.074l20.356 1.791a1.543 1.543 0 0 1-.27 3.074l-20.356-1.791z" clip-rule="evenodd"/><path fill="url(#aj)" fill-rule="evenodd" d="M33.989 125.805a1.542 1.542 0 1 1 .539-3.038l20.123 3.569a1.542 1.542 0 1 1-.539 3.038l-20.123-3.569z" clip-rule="evenodd"/><path fill="url(#ak)" fill-rule="evenodd" d="M34.271 123.892a1.543 1.543 0 0 1 .803-2.978l19.74 5.32a1.542 1.542 0 1 1-.803 2.978l-19.74-5.32z" clip-rule="evenodd"/><path fill="url(#al)" fill-rule="evenodd" d="M34.719 122.011a1.541 1.541 0 1 1 1.06-2.895l19.205 7.031a1.541 1.541 0 1 1-1.06 2.895l-19.205-7.031z" clip-rule="evenodd"/><path fill="url(#am)" fill-rule="evenodd" d="M35.327 120.177a1.542 1.542 0 0 1 1.309-2.791l18.524 8.689a1.54 1.54 0 1 1-1.309 2.79l-18.524-8.688z" clip-rule="evenodd"/><path fill="url(#an)" fill-rule="evenodd" d="M36.092 118.402a1.54 1.54 0 0 1 1.547-2.664l17.703 10.281a1.54 1.54 0 0 1-1.547 2.664l-17.703-10.281z" clip-rule="evenodd"/><path fill="url(#ao)" fill-rule="evenodd" d="M37.008 116.701a1.54 1.54 0 1 1 1.773-2.517l16.748 11.795a1.541 1.541 0 0 1-1.773 2.518l-16.748-11.796z" clip-rule="evenodd"/><path fill="url(#ap)" fill-rule="evenodd" d="M38.068 115.087a1.54 1.54 0 0 1 1.985-2.352l15.665 13.221a1.54 1.54 0 0 1-1.985 2.352l-15.665-13.221z" clip-rule="evenodd"/><path fill="url(#aq)" fill-rule="evenodd" d="M39.265 113.573a1.538 1.538 0 1 1 2.182-2.17l14.46 14.546a1.538 1.538 0 1 1-2.182 2.169l-14.46-14.545z" clip-rule="evenodd"/><path fill="url(#ar)" fill-rule="evenodd" d="M40.588 112.168a1.538 1.538 0 0 1 2.361-1.969l13.148 15.76a1.538 1.538 0 0 1-2.361 1.97l-13.148-15.761z" clip-rule="evenodd"/><path fill="url(#as)" fill-rule="evenodd" d="M42.029 110.886a1.538 1.538 0 0 1 2.523-1.756l11.733 16.855a1.537 1.537 0 1 1-2.523 1.756L42.03 110.886z" clip-rule="evenodd"/><path fill="url(#at)" fill-rule="evenodd" d="M43.574 109.735a1.536 1.536 0 0 1 2.664-1.53l10.23 17.823c.421.733.17 1.668-.56 2.093a1.537 1.537 0 0 1-2.104-.564l-10.23-17.822z" clip-rule="evenodd"/><path fill="url(#au)" fill-rule="evenodd" d="M45.214 108.724A1.534 1.534 0 1 1 48 107.432l8.648 18.654a1.536 1.536 0 1 1-2.786 1.291l-8.648-18.653z" clip-rule="evenodd"/><path fill="url(#av)" fill-rule="evenodd" d="M46.936 107.861a1.535 1.535 0 0 1 2.887-1.045l6.999 19.343a1.535 1.535 0 0 1-2.887 1.045l-7-19.343z" clip-rule="evenodd"/><path fill="url(#aw)" fill-rule="evenodd" d="M48.727 107.152a1.535 1.535 0 0 1 2.966-.79l5.297 19.885a1.534 1.534 0 0 1-2.965.79l-5.298-19.885z" clip-rule="evenodd"/><path fill="url(#ax)" fill-rule="evenodd" d="M50.571 106.604a1.534 1.534 0 1 1 3.022-.53l3.555 20.275a1.534 1.534 0 0 1-3.022.529l-3.555-20.274z" clip-rule="evenodd"/><path fill="url(#ay)" fill-rule="evenodd" d="M53.85 104.558a1.535 1.535 0 0 0-1.393 1.661l1.784 20.51c.044.509.332.938.739 1.183a1.532 1.532 0 0 1-.62-1.232v-20.588c0-.488.228-.923.583-1.204a1.532 1.532 0 0 0-1.092-.33z" clip-rule="evenodd"/><g filter="url(#az)" opacity=".4" style="mix-blend-mode:overlay"><path fill="url(#aA)" fill-rule="evenodd" d="M52.877 105.026a1.532 1.532 0 0 1 2.065-.138c.262-.207.592-.33.951-.33.375 0 .718.134.984.357a1.53 1.53 0 0 1 2.019.13 1.53 1.53 0 0 1 2.021.335 1.53 1.53 0 0 1 1.953.526 1.532 1.532 0 0 1 1.9.696 1.529 1.529 0 0 1 1.077.086c.35.164.61.445.754.774a1.53 1.53 0 0 1 1.066.18c.335.194.57.497.684.838a1.532 1.532 0 0 1 1.656 1.166 1.534 1.534 0 0 1 1.547 1.307 1.535 1.535 0 0 1 1.428 1.438 1.535 1.535 0 0 1 1.298 1.557c.35.087.67.296.892.615.222.319.306.692.266 1.05a1.538 1.538 0 0 1 1.009 1.76 1.537 1.537 0 0 1 .853 1.841 1.538 1.538 0 0 1 .69 1.91 1.537 1.537 0 0 1 .522 1.962c.28.226.484.551.55.934.068.383-.012.757-.2 1.065a1.54 1.54 0 0 1 .177 2.024 1.54 1.54 0 0 1 0 2.031 1.537 1.537 0 0 1-.176 2.023c.187.309.267.683.2 1.066s-.27.708-.55.934c.16.323.207.704.107 1.08-.1.376-.33.682-.63.883a1.535 1.535 0 0 1-.69 1.908 1.537 1.537 0 0 1-.853 1.842c.071.353.02.733-.174 1.07a1.533 1.533 0 0 1-.834.69c.04.358-.045.731-.267 1.05a1.534 1.534 0 0 1-.892.615 1.534 1.534 0 0 1-1.298 1.557 1.535 1.535 0 0 1-1.428 1.438 1.533 1.533 0 0 1-1.547 1.307 1.533 1.533 0 0 1-1.655 1.167c-.115.34-.349.643-.684.837a1.53 1.53 0 0 1-1.067.18c-.144.329-.403.61-.754.774a1.53 1.53 0 0 1-1.078.086 1.532 1.532 0 0 1-1.9.696 1.53 1.53 0 0 1-1.952.527 1.531 1.531 0 0 1-1.99.353c-.248.26-.588.434-.974.468a1.525 1.525 0 0 1-1.041-.291 1.528 1.528 0 0 1-2.022.001c-.29.212-.654.324-1.04.29a1.527 1.527 0 0 1-.974-.468 1.531 1.531 0 0 1-1.99-.353 1.535 1.535 0 0 1-1.954-.527 1.532 1.532 0 0 1-1.9-.696 1.531 1.531 0 0 1-1.077-.086 1.528 1.528 0 0 1-.754-.774 1.53 1.53 0 0 1-1.75-1.017 1.538 1.538 0 0 1-1.655-1.167 1.535 1.535 0 0 1-1.547-1.307 1.534 1.534 0 0 1-1.429-1.438 1.536 1.536 0 0 1-1.297-1.557 1.535 1.535 0 0 1-.892-.615 1.534 1.534 0 0 1-.267-1.05 1.533 1.533 0 0 1-.834-.69 1.535 1.535 0 0 1-.174-1.07 1.536 1.536 0 0 1-.854-1.841 1.541 1.541 0 0 1-.69-1.91 1.537 1.537 0 0 1-.522-1.961 1.54 1.54 0 0 1-.35-2.001 1.538 1.538 0 0 1-.467-.978 1.537 1.537 0 0 1 .291-1.045 1.537 1.537 0 0 1-.381-1.016c0-.388.144-.744.381-1.015a1.537 1.537 0 0 1-.292-1.045c.034-.387.208-.728.467-.978a1.54 1.54 0 0 1 .35-2.001 1.539 1.539 0 0 1 .523-1.962 1.535 1.535 0 0 1-.013-1.084c.132-.365.388-.65.703-.824a1.537 1.537 0 0 1 .853-1.842 1.535 1.535 0 0 1 .174-1.07c.193-.337.495-.573.835-.69-.04-.358.045-.731.267-1.05.222-.319.542-.528.891-.615a1.536 1.536 0 0 1 1.299-1.557 1.536 1.536 0 0 1 1.427-1.438 1.533 1.533 0 0 1 1.548-1.307 1.532 1.532 0 0 1 1.655-1.167 1.53 1.53 0 0 1 .684-.837 1.528 1.528 0 0 1 1.065-.18c.144-.329.404-.61.755-.774a1.53 1.53 0 0 1 1.077-.086 1.53 1.53 0 0 1 .82-.705c.364-.133.745-.12 1.08.01.2-.3.504-.531.878-.631a1.528 1.528 0 0 1 1.075.103 1.531 1.531 0 0 1 1.992-.353z" clip-rule="evenodd"/></g><g filter="url(#aB)"><path stroke="url(#aC)" stroke-width="1.921" d="M123.791 128.73H55.886"/></g><g filter="url(#aD)"><path stroke="url(#aE)" stroke-opacity=".4" stroke-width=".5" d="M123.353 129.46H55.447"/></g><g filter="url(#aF)"><circle cx="56.152" cy="127.621" r="19.24" fill="#101010"/><circle cx="56.152" cy="127.621" r="19.24" fill="url(#aG)" fill-opacity=".3" style="mix-blend-mode:screen"/></g><circle cx="56.153" cy="127.621" r="17.956" fill="#101010"/><circle cx="56.153" cy="127.621" r="17.956" fill="url(#aH)" fill-opacity=".1" style="mix-blend-mode:screen"/><circle cx="55.954" cy="127.423" r="2.231" fill="#FF6058"/><defs><linearGradient id="f" x1="56.159" x2="55.58" y1="108.947" y2="108.947" gradientUnits="userSpaceOnUse"><stop stop-color="#2D2D2D"/><stop offset="1" stop-color="#181818"/></linearGradient><linearGradient id="g" x1="57.835" x2="57.255" y1="108.998" y2="108.948" gradientUnits="userSpaceOnUse"><stop stop-color="#2D2D2D"/><stop offset="1" stop-color="#181818"/></linearGradient><linearGradient id="h" x1="59.499" x2="58.924" y1="109.197" y2="109.096" gradientUnits="userSpaceOnUse"><stop stop-color="#2D2D2D"/><stop offset="1" stop-color="#181818"/></linearGradient><linearGradient id="i" x1="61.13" x2="60.564" y1="109.585" y2="109.433" gradientUnits="userSpaceOnUse"><stop stop-color="#2D2D2D"/><stop offset="1" stop-color="#181818"/></linearGradient><linearGradient id="j" x1="62.72" x2="62.168" y1="110.115" y2="109.914" gradientUnits="userSpaceOnUse"><stop stop-color="#2D2D2D"/><stop offset="1" stop-color="#181818"/></linearGradient><linearGradient id="k" x1="64.258" x2="63.723" y1="110.782" y2="110.533" gradientUnits="userSpaceOnUse"><stop stop-color="#2D2D2D"/><stop offset="1" stop-color="#181818"/></linearGradient><linearGradient id="l" x1="65.731" x2="65.219" y1="111.582" y2="111.286" gradientUnits="userSpaceOnUse"><stop stop-color="#2D2D2D"/><stop offset="1" stop-color="#181818"/></linearGradient><linearGradient id="m" x1="67.129" x2="66.644" y1="112.507" y2="112.168" gradientUnits="userSpaceOnUse"><stop stop-color="#2D2D2D"/><stop offset="1" stop-color="#181818"/></linearGradient><linearGradient id="n" x1="68.441" x2="67.986" y1="113.552" y2="113.17" gradientUnits="userSpaceOnUse"><stop stop-color="#2D2D2D"/><stop offset="1" stop-color="#181818"/></linearGradient><linearGradient id="o" x1="69.656" x2="69.236" y1="114.707" y2="114.287" gradientUnits="userSpaceOnUse"><stop stop-color="#2D2D2D"/><stop offset="1" stop-color="#181818"/></linearGradient><linearGradient id="p" x1="70.766" x2="70.384" y1="115.964" y2="115.509" gradientUnits="userSpaceOnUse"><stop stop-color="#2D2D2D"/><stop offset="1" stop-color="#181818"/></linearGradient><linearGradient id="q" x1="71.763" x2="71.422" y1="117.312" y2="116.826" gradientUnits="userSpaceOnUse"><stop stop-color="#2D2D2D"/><stop offset="1" stop-color="#181818"/></linearGradient><linearGradient id="r" x1="72.638" x2="72.341" y1="118.742" y2="118.228" gradientUnits="userSpaceOnUse"><stop stop-color="#2D2D2D"/><stop offset="1" stop-color="#181818"/></linearGradient><linearGradient id="s" x1="73.386" x2="73.135" y1="120.242" y2="119.706" gradientUnits="userSpaceOnUse"><stop stop-color="#2D2D2D"/><stop offset="1" stop-color="#181818"/></linearGradient><linearGradient id="t" x1="74.001" x2="73.799" y1="121.802" y2="121.247" gradientUnits="userSpaceOnUse"><stop stop-color="#2D2D2D"/><stop offset="1" stop-color="#181818"/></linearGradient><linearGradient id="u" x1="74.478" x2="74.326" y1="123.409" y2="122.84" gradientUnits="userSpaceOnUse"><stop stop-color="#2D2D2D"/><stop offset="1" stop-color="#181818"/></linearGradient><linearGradient id="v" x1="74.814" x2="74.712" y1="125.051" y2="124.474" gradientUnits="userSpaceOnUse"><stop stop-color="#2D2D2D"/><stop offset="1" stop-color="#181818"/></linearGradient><linearGradient id="w" x1="75.008" x2="74.957" y1="126.717" y2="126.134" gradientUnits="userSpaceOnUse"><stop stop-color="#2D2D2D"/><stop offset="1" stop-color="#181818"/></linearGradient><linearGradient id="x" x1="75.056" x2="75.056" y1="128.392" y2="127.81" gradientUnits="userSpaceOnUse"><stop stop-color="#2D2D2D"/><stop offset="1" stop-color="#181818"/></linearGradient><linearGradient id="y" x1="74.961" x2="75.012" y1="130.068" y2="129.485" gradientUnits="userSpaceOnUse"><stop stop-color="#2D2D2D"/><stop offset="1" stop-color="#181818"/></linearGradient><linearGradient id="z" x1="74.721" x2="74.823" y1="131.729" y2="131.151" gradientUnits="userSpaceOnUse"><stop stop-color="#2D2D2D"/><stop offset="1" stop-color="#181818"/></linearGradient><linearGradient id="A" x1="74.338" x2="74.491" y1="133.362" y2="132.794" gradientUnits="userSpaceOnUse"><stop stop-color="#2D2D2D"/><stop offset="1" stop-color="#181818"/></linearGradient><linearGradient id="B" x1="73.815" x2="74.017" y1="134.957" y2="134.402" gradientUnits="userSpaceOnUse"><stop stop-color="#2D2D2D"/><stop offset="1" stop-color="#181818"/></linearGradient><linearGradient id="C" x1="73.156" x2="73.406" y1="136.499" y2="135.963" gradientUnits="userSpaceOnUse"><stop stop-color="#2D2D2D"/><stop offset="1" stop-color="#181818"/></linearGradient><linearGradient id="D" x1="72.365" x2="72.662" y1="137.979" y2="137.466" gradientUnits="userSpaceOnUse"><stop stop-color="#2D2D2D"/><stop offset="1" stop-color="#181818"/></linearGradient><linearGradient id="E" x1="71.45" x2="71.79" y1="139.384" y2="138.898" gradientUnits="userSpaceOnUse"><stop stop-color="#2D2D2D"/><stop offset="1" stop-color="#181818"/></linearGradient><linearGradient id="F" x1="70.416" x2="70.797" y1="140.704" y2="140.249" gradientUnits="userSpaceOnUse"><stop stop-color="#2D2D2D"/><stop offset="1" stop-color="#181818"/></linearGradient><linearGradient id="G" x1="69.27" x2="69.69" y1="141.928" y2="141.508" gradientUnits="userSpaceOnUse"><stop stop-color="#2D2D2D"/><stop offset="1" stop-color="#181818"/></linearGradient><linearGradient id="H" x1="68.023" x2="68.477" y1="143.048" y2="142.666" gradientUnits="userSpaceOnUse"><stop stop-color="#2D2D2D"/><stop offset="1" stop-color="#181818"/></linearGradient><linearGradient id="I" x1="66.683" x2="67.168" y1="144.054" y2="143.714" gradientUnits="userSpaceOnUse"><stop stop-color="#2D2D2D"/><stop offset="1" stop-color="#181818"/></linearGradient><linearGradient id="J" x1="65.261" x2="65.773" y1="144.939" y2="144.643" gradientUnits="userSpaceOnUse"><stop stop-color="#2D2D2D"/><stop offset="1" stop-color="#181818"/></linearGradient><linearGradient id="K" x1="63.767" x2="64.301" y1="145.696" y2="145.447" gradientUnits="userSpaceOnUse"><stop stop-color="#2D2D2D"/><stop offset="1" stop-color="#181818"/></linearGradient><linearGradient id="L" x1="62.212" x2="62.765" y1="146.319" y2="146.118" gradientUnits="userSpaceOnUse"><stop stop-color="#2D2D2D"/><stop offset="1" stop-color="#181818"/></linearGradient><linearGradient id="M" x1="60.609" x2="61.175" y1="146.803" y2="146.652" gradientUnits="userSpaceOnUse"><stop stop-color="#2D2D2D"/><stop offset="1" stop-color="#181818"/></linearGradient><linearGradient id="N" x1="58.971" x2="59.546" y1="147.145" y2="147.044" gradientUnits="userSpaceOnUse"><stop stop-color="#2D2D2D"/><stop offset="1" stop-color="#181818"/></linearGradient><linearGradient id="O" x1="57.309" x2="57.888" y1="147.342" y2="147.291" gradientUnits="userSpaceOnUse"><stop stop-color="#2D2D2D"/><stop offset="1" stop-color="#181818"/></linearGradient><linearGradient id="P" x1="59.234" x2="58.655" y1="156.17" y2="156.17" gradientUnits="userSpaceOnUse"><stop stop-color="#2D2D2D"/><stop offset="1" stop-color="#181818"/></linearGradient><linearGradient id="Q" x1="53.962" x2="54.541" y1="147.295" y2="147.346" gradientUnits="userSpaceOnUse"><stop stop-color="#2D2D2D"/><stop offset="1" stop-color="#181818"/></linearGradient><linearGradient id="R" x1="52.304" x2="52.879" y1="147.052" y2="147.153" gradientUnits="userSpaceOnUse"><stop stop-color="#2D2D2D"/><stop offset="1" stop-color="#181818"/></linearGradient><linearGradient id="S" x1="50.673" x2="51.239" y1="146.664" y2="146.816" gradientUnits="userSpaceOnUse"><stop stop-color="#2D2D2D"/><stop offset="1" stop-color="#181818"/></linearGradient><linearGradient id="T" x1="49.083" x2="49.635" y1="146.134" y2="146.335" gradientUnits="userSpaceOnUse"><stop stop-color="#2D2D2D"/><stop offset="1" stop-color="#181818"/></linearGradient><linearGradient id="U" x1="47.544" x2="48.078" y1="145.467" y2="145.716" gradientUnits="userSpaceOnUse"><stop stop-color="#2D2D2D"/><stop offset="1" stop-color="#181818"/></linearGradient><linearGradient id="V" x1="46.072" x2="46.584" y1="144.667" y2="144.963" gradientUnits="userSpaceOnUse"><stop stop-color="#2D2D2D"/><stop offset="1" stop-color="#181818"/></linearGradient><linearGradient id="W" x1="44.673" x2="45.159" y1="143.742" y2="144.081" gradientUnits="userSpaceOnUse"><stop stop-color="#2D2D2D"/><stop offset="1" stop-color="#181818"/></linearGradient><linearGradient id="X" x1="43.362" x2="43.816" y1="142.697" y2="143.078" gradientUnits="userSpaceOnUse"><stop stop-color="#2D2D2D"/><stop offset="1" stop-color="#181818"/></linearGradient><linearGradient id="Y" x1="42.146" x2="42.566" y1="141.542" y2="141.962" gradientUnits="userSpaceOnUse"><stop stop-color="#2D2D2D"/><stop offset="1" stop-color="#181818"/></linearGradient><linearGradient id="Z" x1="41.037" x2="41.418" y1="140.286" y2="140.74" gradientUnits="userSpaceOnUse"><stop stop-color="#2D2D2D"/><stop offset="1" stop-color="#181818"/></linearGradient><linearGradient id="aa" x1="40.04" x2="40.38" y1="138.937" y2="139.423" gradientUnits="userSpaceOnUse"><stop stop-color="#2D2D2D"/><stop offset="1" stop-color="#181818"/></linearGradient><linearGradient id="ab" x1="39.165" x2="39.462" y1="137.507" y2="138.021" gradientUnits="userSpaceOnUse"><stop stop-color="#2D2D2D"/><stop offset="1" stop-color="#181818"/></linearGradient><linearGradient id="ac" x1="38.417" x2="38.667" y1="136.007" y2="136.543" gradientUnits="userSpaceOnUse"><stop stop-color="#2D2D2D"/><stop offset="1" stop-color="#181818"/></linearGradient><linearGradient id="ad" x1="37.802" x2="38.004" y1="134.447" y2="135.002" gradientUnits="userSpaceOnUse"><stop stop-color="#2D2D2D"/><stop offset="1" stop-color="#181818"/></linearGradient><linearGradient id="ae" x1="37.325" x2="37.477" y1="132.84" y2="133.408" gradientUnits="userSpaceOnUse"><stop stop-color="#2D2D2D"/><stop offset="1" stop-color="#181818"/></linearGradient><linearGradient id="af" x1="36.988" x2="37.09" y1="131.198" y2="131.775" gradientUnits="userSpaceOnUse"><stop stop-color="#2D2D2D"/><stop offset="1" stop-color="#181818"/></linearGradient><linearGradient id="ag" x1="36.796" x2="36.846" y1="129.532" y2="130.115" gradientUnits="userSpaceOnUse"><stop stop-color="#2D2D2D"/><stop offset="1" stop-color="#181818"/></linearGradient><linearGradient id="ah" x1="36.746" x2="36.746" y1="127.857" y2="128.439" gradientUnits="userSpaceOnUse"><stop stop-color="#2D2D2D"/><stop offset="1" stop-color="#181818"/></linearGradient><linearGradient id="ai" x1="36.842" x2="36.791" y1="126.181" y2="126.764" gradientUnits="userSpaceOnUse"><stop stop-color="#2D2D2D"/><stop offset="1" stop-color="#181818"/></linearGradient><linearGradient id="aj" x1="37.081" x2="36.979" y1="124.52" y2="125.098" gradientUnits="userSpaceOnUse"><stop stop-color="#2D2D2D"/><stop offset="1" stop-color="#181818"/></linearGradient><linearGradient id="ak" x1="37.465" x2="37.312" y1="122.887" y2="123.455" gradientUnits="userSpaceOnUse"><stop stop-color="#2D2D2D"/><stop offset="1" stop-color="#181818"/></linearGradient><linearGradient id="al" x1="37.988" x2="37.786" y1="121.292" y2="121.847" gradientUnits="userSpaceOnUse"><stop stop-color="#2D2D2D"/><stop offset="1" stop-color="#181818"/></linearGradient><linearGradient id="am" x1="38.647" x2="38.397" y1="119.75" y2="120.286" gradientUnits="userSpaceOnUse"><stop stop-color="#2D2D2D"/><stop offset="1" stop-color="#181818"/></linearGradient><linearGradient id="an" x1="39.437" x2="39.14" y1="118.27" y2="118.783" gradientUnits="userSpaceOnUse"><stop stop-color="#2D2D2D"/><stop offset="1" stop-color="#181818"/></linearGradient><linearGradient id="ao" x1="40.353" x2="40.012" y1="116.865" y2="117.351" gradientUnits="userSpaceOnUse"><stop stop-color="#2D2D2D"/><stop offset="1" stop-color="#181818"/></linearGradient><linearGradient id="ap" x1="41.387" x2="41.005" y1="115.545" y2="116" gradientUnits="userSpaceOnUse"><stop stop-color="#2D2D2D"/><stop offset="1" stop-color="#181818"/></linearGradient><linearGradient id="aq" x1="42.533" x2="42.113" y1="114.321" y2="114.741" gradientUnits="userSpaceOnUse"><stop stop-color="#2D2D2D"/><stop offset="1" stop-color="#181818"/></linearGradient><linearGradient id="ar" x1="43.779" x2="43.324" y1="113.201" y2="113.583" gradientUnits="userSpaceOnUse"><stop stop-color="#2D2D2D"/><stop offset="1" stop-color="#181818"/></linearGradient><linearGradient id="as" x1="45.12" x2="44.634" y1="112.195" y2="112.535" gradientUnits="userSpaceOnUse"><stop stop-color="#2D2D2D"/><stop offset="1" stop-color="#181818"/></linearGradient><linearGradient id="at" x1="46.541" x2="46.029" y1="111.31" y2="111.606" gradientUnits="userSpaceOnUse"><stop stop-color="#2D2D2D"/><stop offset="1" stop-color="#181818"/></linearGradient><linearGradient id="au" x1="48.035" x2="47.501" y1="110.553" y2="110.802" gradientUnits="userSpaceOnUse"><stop stop-color="#2D2D2D"/><stop offset="1" stop-color="#181818"/></linearGradient><linearGradient id="av" x1="49.59" x2="49.037" y1="109.93" y2="110.131" gradientUnits="userSpaceOnUse"><stop stop-color="#2D2D2D"/><stop offset="1" stop-color="#181818"/></linearGradient><linearGradient id="aw" x1="51.193" x2="50.627" y1="109.446" y2="109.597" gradientUnits="userSpaceOnUse"><stop stop-color="#2D2D2D"/><stop offset="1" stop-color="#181818"/></linearGradient><linearGradient id="ax" x1="52.832" x2="52.257" y1="109.104" y2="109.205" gradientUnits="userSpaceOnUse"><stop stop-color="#2D2D2D"/><stop offset="1" stop-color="#181818"/></linearGradient><linearGradient id="ay" x1="54.639" x2="53.298" y1="104.896" y2="104.896" gradientUnits="userSpaceOnUse"><stop stop-color="#2D2D2D"/><stop offset="1" stop-color="#181818"/></linearGradient><linearGradient id="aA" x1="70.125" x2="39.5" y1="108.54" y2="147.54" gradientUnits="userSpaceOnUse"><stop stop-color="#6B6B6B"/><stop offset=".622" stop-color="#181818"/></linearGradient><linearGradient id="aC" x1="125.001" x2="63.251" y1="129.229" y2="129.229" gradientUnits="userSpaceOnUse"><stop stop-color="#FF6058"/><stop offset=".632" stop-color="#FF6058"/><stop offset=".834" stop-color="#451917"/></linearGradient><linearGradient id="aE" x1="124.563" x2="62.813" y1="129.96" y2="129.96" gradientUnits="userSpaceOnUse"><stop offset=".834" stop-color="#5A1E1A"/><stop offset="1" stop-color="#FF6058"/></linearGradient><linearGradient id="aG" x1="57.298" x2="30.245" y1="101.113" y2="127.565" gradientUnits="userSpaceOnUse"><stop stop-color="#fff" stop-opacity=".5"/><stop offset="1" stop-opacity=".5"/></linearGradient><linearGradient id="aH" x1="57.222" x2="31.976" y1="102.883" y2="127.568" gradientUnits="userSpaceOnUse"><stop stop-color="#fff" stop-opacity=".5"/><stop offset="1" stop-opacity=".5"/></linearGradient><filter id="b" width="248.021" height="187.105" x="-25.186" y="91.112" color-interpolation-filters="sRGB" filterUnits="userSpaceOnUse"><feFlood flood-opacity="0" result="BackgroundImageFix"/><feBlend in="SourceGraphic" in2="BackgroundImageFix" result="shape"/><feGaussianBlur result="effect1_foregroundBlur_420_521" stdDeviation="13.572"/></filter><filter id="c" width="248.021" height="187.105" x="-33.174" y="-26.713" color-interpolation-filters="sRGB" filterUnits="userSpaceOnUse"><feFlood flood-opacity="0" result="BackgroundImageFix"/><feBlend in="SourceGraphic" in2="BackgroundImageFix" result="shape"/><feGaussianBlur result="effect1_foregroundBlur_420_521" stdDeviation="13.572"/></filter><filter id="d" width="106.218" height="106.218" x="2.776" y="77.142" color-interpolation-filters="sRGB" filterUnits="userSpaceOnUse"><feFlood flood-opacity="0" result="BackgroundImageFix"/><feBlend in="SourceGraphic" in2="BackgroundImageFix" result="shape"/><feGaussianBlur result="effect1_foregroundBlur_420_521" stdDeviation="13.572"/></filter><filter id="e" width="76.467" height="66.86" x="8.52" y="94.7" color-interpolation-filters="sRGB" filterUnits="userSpaceOnUse"><feFlood flood-opacity="0" result="BackgroundImageFix"/><feColorMatrix in="SourceAlpha" result="hardAlpha" values="0 0 0 0 0 0 0 0 0 0 0 0 0 0 0 0 0 0 127 0"/><feOffset dx="-2.882"/><feGaussianBlur stdDeviation="2.161"/><feColorMatrix values="0 0 0 0 0 0 0 0 0 0 0 0 0 0 0 0 0 0 0.6 0"/><feBlend in2="BackgroundImageFix" result="effect1_dropShadow_420_521"/><feColorMatrix in="SourceAlpha" result="hardAlpha" values="0 0 0 0 0 0 0 0 0 0 0 0 0 0 0 0 0 0 127 0"/><feOffset dx="-10.567"/><feGaussianBlur stdDeviation="4.563"/><feColorMatrix values="0 0 0 0 0 0 0 0 0 0 0 0 0 0 0 0 0 0 0.4 0"/><feBlend in2="effect1_dropShadow_420_521" result="effect2_dropShadow_420_521"/><feColorMatrix in="SourceAlpha" result="hardAlpha" values="0 0 0 0 0 0 0 0 0 0 0 0 0 0 0 0 0 0 127 0"/><feOffset dx="-20.654"/><feGaussianBlur stdDeviation="6.244"/><feColorMatrix values="0 0 0 0 0 0 0 0 0 0 0 0 0 0 0 0 0 0 0.3 0"/><feBlend in2="effect2_dropShadow_420_521" result="effect3_dropShadow_420_521"/><feBlend in="SourceGraphic" in2="effect3_dropShadow_420_521" result="shape"/></filter><filter id="az" width="49.037" height="49.228" x="30.383" y="104.552" color-interpolation-filters="sRGB" filterUnits="userSpaceOnUse"><feFlood flood-opacity="0" result="BackgroundImageFix"/><feBlend in="SourceGraphic" in2="BackgroundImageFix" result="shape"/><feColorMatrix in="SourceAlpha" result="hardAlpha" values="0 0 0 0 0 0 0 0 0 0 0 0 0 0 0 0 0 0 127 0"/><feOffset dx="-2" dy="2"/><feGaussianBlur stdDeviation="3"/><feComposite in2="hardAlpha" k2="-1" k3="1" operator="arithmetic"/><feColorMatrix values="0 0 0 0 1 0 0 0 0 1 0 0 0 0 1 0 0 0 1 0"/><feBlend in2="shape" result="effect1_innerShadow_420_521"/></filter><filter id="aB" width="75.591" height="9.607" x="52.043" y="125.847" color-interpolation-filters="sRGB" filterUnits="userSpaceOnUse"><feFlood flood-opacity="0" result="BackgroundImageFix"/><feColorMatrix in="SourceAlpha" result="hardAlpha" values="0 0 0 0 0 0 0 0 0 0 0 0 0 0 0 0 0 0 127 0"/><feOffset dy="1.921"/><feGaussianBlur stdDeviation="1.921"/><feColorMatrix values="0 0 0 0 0 0 0 0 0 0 0 0 0 0 0 0 0 0 0.4 0"/><feBlend in2="BackgroundImageFix" result="effect1_dropShadow_420_521"/><feBlend in="SourceGraphic" in2="effect1_dropShadow_420_521" result="shape"/></filter><filter id="aD" width="75.591" height="8.185" x="51.605" y="127.289" color-interpolation-filters="sRGB" filterUnits="userSpaceOnUse"><feFlood flood-opacity="0" result="BackgroundImageFix"/><feColorMatrix in="SourceAlpha" result="hardAlpha" values="0 0 0 0 0 0 0 0 0 0 0 0 0 0 0 0 0 0 127 0"/><feOffset dy="1.921"/><feGaussianBlur stdDeviation="1.921"/><feColorMatrix values="0 0 0 0 0 0 0 0 0 0 0 0 0 0 0 0 0 0 0.4 0"/><feBlend in2="BackgroundImageFix" result="effect1_dropShadow_420_521"/><feBlend in="SourceGraphic" in2="effect1_dropShadow_420_521" result="shape"/></filter><filter id="aF" width="49.048" height="43.284" x="30.188" y="105.979" color-interpolation-filters="sRGB" filterUnits="userSpaceOnUse"><feFlood flood-opacity="0" result="BackgroundImageFix"/><feColorMatrix in="SourceAlpha" result="hardAlpha" values="0 0 0 0 0 0 0 0 0 0 0 0 0 0 0 0 0 0 127 0"/><feOffset dx="-4.323"/><feGaussianBlur stdDeviation="1.201"/><feColorMatrix values="0 0 0 0 0 0 0 0 0 0 0 0 0 0 0 0 0 0 0.2 0"/><feBlend in2="BackgroundImageFix" result="effect1_dropShadow_420_521"/><feColorMatrix in="SourceAlpha" result="hardAlpha" values="0 0 0 0 0 0 0 0 0 0 0 0 0 0 0 0 0 0 127 0"/><feOffset dx="2.402"/><feGaussianBlur stdDeviation=".72"/><feColorMatrix values="0 0 0 0 0 0 0 0 0 0 0 0 0 0 0 0 0 0 0.3 0"/><feBlend in2="effect1_dropShadow_420_521" result="effect2_dropShadow_420_521"/><feBlend in="SourceGraphic" in2="effect2_dropShadow_420_521" result="shape"/></filter></defs></svg>